<svg width="16" height="16" viewBox="0 0 16 16" fill="none" xmlns="http://www.w3.org/2000/svg">
<path d="M6.66668 1.33334H9.33334C9.68697 1.33334 10.0261 1.47382 10.2762 1.72387C10.5262 1.97392 10.6667 2.31305 10.6667 2.66668V4.00001H13.3333C13.687 4.00001 14.0261 4.14049 14.2762 4.39053C14.5262 4.64058 14.6667 4.97972 14.6667 5.33334V12.6667C14.6667 13.0203 14.5262 13.3594 14.2762 13.6095C14.0261 13.8595 13.687 14 13.3333 14H2.66668C2.31305 14 1.97392 13.8595 1.72387 13.6095C1.47382 13.3594 1.33334 13.0203 1.33334 12.6667V5.33334C1.33334 4.59334 1.92668 4.00001 2.66668 4.00001H5.33334V2.66668C5.33334 1.92668 5.92668 1.33334 6.66668 1.33334ZM9.33334 4.00001V2.66668H6.66668V4.00001H9.33334Z" fill="#C9A84C"/>
</svg>
