<svg width="16" height="16" viewBox="0 0 16 16" fill="none" xmlns="http://www.w3.org/2000/svg">
<path fill-rule="evenodd" clip-rule="evenodd" d="M4.43085 7.16115C4.27154 7.00195 4.14517 6.81292 4.05895 6.60486C3.97273 6.3968 3.92835 6.17379 3.92835 5.94857C3.92835 5.72336 3.97273 5.50035 4.05895 5.29229C4.14517 5.08423 4.27154 4.8952 4.43085 4.736L8.52799 0.640003C8.68719 0.480701 8.87622 0.354329 9.08428 0.26811C9.29234 0.18189 9.51534 0.137512 9.74056 0.137512C9.96578 0.137512 10.1888 0.18189 10.3968 0.26811C10.6049 0.354329 10.7939 0.480701 10.9531 0.640003L12.7623 2.45029C13.0837 2.77177 13.2642 3.20772 13.2642 3.66229C13.2642 4.11686 13.0837 4.55281 12.7623 4.87429L11.3257 6.30972L15.6571 10.64C15.7367 10.7197 15.7997 10.8143 15.8427 10.9183C15.8857 11.0224 15.9078 11.1339 15.9077 11.2465C15.9076 11.3591 15.8853 11.4706 15.8421 11.5746C15.7989 11.6786 15.7357 11.773 15.656 11.8526C15.5763 11.9321 15.4817 11.9952 15.3776 12.0382C15.2736 12.0812 15.1621 12.1032 15.0495 12.1031C14.9369 12.103 14.8254 12.0807 14.7214 12.0376C14.6174 11.9944 14.523 11.9311 14.4434 11.8514L10.1143 7.52343L8.66513 8.97143C8.3437 9.29246 7.90799 9.47278 7.4537 9.47278C6.99942 9.47278 6.5637 9.29246 6.24227 8.97143L4.43085 7.16115ZM1.52113 14.1486H0.949703C0.722374 14.1486 0.504357 14.2389 0.343611 14.3996C0.182866 14.5604 0.0925598 14.7784 0.0925598 15.0057C0.0925598 15.233 0.182866 15.4511 0.343611 15.6118C0.504357 15.7726 0.722374 15.8629 0.949703 15.8629H9.52113C9.74846 15.8629 9.96648 15.7726 10.1272 15.6118C10.288 15.4511 10.3783 15.233 10.3783 15.0057C10.3783 14.7784 10.288 14.5604 10.1272 14.3996C9.96648 14.2389 9.74846 14.1486 9.52113 14.1486H8.9497V12.1486C8.9497 11.997 8.8895 11.8517 8.78234 11.7445C8.67517 11.6374 8.52983 11.5771 8.37827 11.5771H2.09256C1.94101 11.5771 1.79566 11.6374 1.6885 11.7445C1.58134 11.8517 1.52113 11.997 1.52113 12.1486V14.1486Z" fill="#8C7332"/>
</svg>
