<svg width="16" height="16" viewBox="0 0 16 16" fill="none" xmlns="http://www.w3.org/2000/svg">
<path d="M8.68533 1.33334C9.43533 1.33534 9.81599 1.33934 10.1447 1.34868L10.274 1.35334C10.4233 1.35868 10.5707 1.36534 10.7487 1.37334C11.458 1.40668 11.942 1.51868 12.3667 1.68334C12.8067 1.85268 13.1773 2.08201 13.548 2.45201C13.8871 2.78517 14.1494 3.18833 14.3167 3.63334C14.4813 4.05801 14.5933 4.54201 14.6267 5.25201C14.6347 5.42934 14.6413 5.57668 14.6467 5.72668L14.6507 5.85601C14.6607 6.18401 14.6647 6.56468 14.666 7.31468L14.6667 7.81201V8.68534C14.6683 9.17161 14.6632 9.65788 14.6513 10.144L14.6473 10.2733C14.642 10.4233 14.6353 10.5707 14.6273 10.748C14.594 11.458 14.4807 11.9413 14.3167 12.3667C14.1494 12.8117 13.8871 13.2149 13.548 13.548C13.2148 13.8871 12.8117 14.1495 12.3667 14.3167C11.942 14.4813 11.458 14.5933 10.7487 14.6267L10.274 14.6467L10.1447 14.6507C9.81599 14.66 9.43533 14.6647 8.68533 14.666L8.18799 14.6667H7.31533C6.82883 14.6684 6.34234 14.6633 5.85599 14.6513L5.72666 14.6473C5.5684 14.6414 5.41017 14.6345 5.25199 14.6267C4.54266 14.5933 4.05866 14.4813 3.63333 14.3167C3.18855 14.1494 2.78562 13.8871 2.45266 13.548C2.11329 13.2149 1.85073 12.8118 1.68333 12.3667C1.51866 11.942 1.40666 11.458 1.37333 10.748L1.35333 10.2733L1.34999 10.144C1.3377 9.65789 1.33215 9.17162 1.33333 8.68534V7.31468C1.33148 6.82841 1.33637 6.34214 1.34799 5.85601L1.35266 5.72668C1.35799 5.57668 1.36466 5.42934 1.37266 5.25201C1.40599 4.54201 1.51799 4.05868 1.68266 3.63334C1.85046 3.18814 2.11347 2.78497 2.45333 2.45201C2.78609 2.11304 3.18878 1.85073 3.63333 1.68334C4.05866 1.51868 4.54199 1.40668 5.25199 1.37334C5.42933 1.36534 5.57733 1.35868 5.72666 1.35334L5.85599 1.34934C6.34212 1.3375 6.82839 1.33239 7.31466 1.33401L8.68533 1.33334ZM7.99999 4.66668C7.11594 4.66668 6.26809 5.01787 5.64297 5.64299C5.01785 6.26811 4.66666 7.11596 4.66666 8.00001C4.66666 8.88407 5.01785 9.73191 5.64297 10.357C6.26809 10.9822 7.11594 11.3333 7.99999 11.3333C8.88405 11.3333 9.73189 10.9822 10.357 10.357C10.9821 9.73191 11.3333 8.88407 11.3333 8.00001C11.3333 7.11596 10.9821 6.26811 10.357 5.64299C9.73189 5.01787 8.88405 4.66668 7.99999 4.66668ZM7.99999 6.00001C8.26264 5.99997 8.52272 6.05165 8.76538 6.15212C9.00805 6.25259 9.22856 6.39988 9.4143 6.58556C9.60005 6.77125 9.74741 6.9917 9.84796 7.23434C9.94851 7.47697 10.0003 7.73703 10.0003 7.99968C10.0004 8.26232 9.94868 8.5224 9.84821 8.76507C9.74774 9.00774 9.60046 9.22824 9.41478 9.41399C9.22909 9.59974 9.00864 9.74709 8.766 9.84764C8.52337 9.94819 8.2633 9.99997 8.00066 10C7.47023 10 6.96152 9.7893 6.58645 9.41422C6.21137 9.03915 6.00066 8.53044 6.00066 8.00001C6.00066 7.46958 6.21137 6.96087 6.58645 6.5858C6.96152 6.21072 7.47023 6.00001 8.00066 6.00001M11.5007 3.66668C11.2796 3.66668 11.0677 3.75447 10.9114 3.91075C10.7551 4.06703 10.6673 4.279 10.6673 4.50001C10.6673 4.72102 10.7551 4.93299 10.9114 5.08927C11.0677 5.24555 11.2796 5.33334 11.5007 5.33334C11.7217 5.33334 11.9336 5.24555 12.0899 5.08927C12.2462 4.93299 12.334 4.72102 12.334 4.50001C12.334 4.279 12.2462 4.06703 12.0899 3.91075C11.9336 3.75447 11.7217 3.66668 11.5007 3.66668Z" fill="#8C7332"/>
</svg>
