<svg width="16" height="16" viewBox="0 0 16 16" fill="none" xmlns="http://www.w3.org/2000/svg">
<path d="M3.55557 3.64444H10.6667V4.35555H3.55557V3.64444ZM3.55557 7.2H7.14935V7.91111H3.55557V7.2ZM10.3902 5.42222H3.55557V6.13333H9.67957L10.3902 5.42222ZM5.68623 12.9209C5.80573 13.0579 5.95739 13.1631 6.12759 13.227C6.29779 13.2909 6.4812 13.3116 6.66135 13.2871H10.1298C10.2123 13.2871 10.2914 13.2543 10.3498 13.196C10.4081 13.1376 10.4409 13.0585 10.4409 12.976C10.4409 12.8935 10.4081 12.8144 10.3498 12.756C10.2914 12.6977 10.2123 12.6649 10.1298 12.6649H6.66135C6.25646 12.6578 6.32846 12.3062 6.38535 12.1973C6.45935 12.0694 6.51713 11.9328 6.55735 11.7907C6.58416 11.6762 6.57175 11.5561 6.5221 11.4495C6.47245 11.343 6.38845 11.2562 6.28357 11.2031C6.11531 11.1274 5.92688 11.1088 5.7471 11.1503C5.56731 11.1918 5.40606 11.2911 5.28801 11.4329C5.13512 11.5907 4.92268 11.832 4.71912 12.0667C4.8449 11.5738 5.00801 10.9413 5.16801 10.3244C5.21386 10.1839 5.20473 10.0312 5.14247 9.89706C5.0802 9.76296 4.96942 9.65745 4.83246 9.60177C4.68077 9.54973 4.51499 9.55716 4.36858 9.62258C4.22216 9.68799 4.10601 9.80651 4.04357 9.95422C3.85157 10.3236 2.33157 12.8707 2.31646 12.8964C2.2955 12.9315 2.28166 12.9704 2.27573 13.0108C2.2698 13.0512 2.27188 13.0924 2.28187 13.132C2.30204 13.2121 2.35317 13.2808 2.42401 13.3231C2.49485 13.3654 2.57961 13.3779 2.65962 13.3577C2.73964 13.3375 2.80836 13.2864 2.85068 13.2156C2.90757 13.12 4.1209 11.0876 4.50357 10.4089C4.21557 11.52 3.89823 12.7564 3.87957 12.8676C3.85863 12.9492 3.86497 13.0355 3.89763 13.1133C3.93029 13.191 3.98747 13.256 4.06046 13.2982C4.14181 13.3386 4.23429 13.3507 4.32329 13.3327C4.4123 13.3146 4.49277 13.2675 4.55201 13.1987C4.60801 13.148 4.7129 13.0276 4.97735 12.7204C5.22372 12.4307 5.47607 12.146 5.73423 11.8667C5.83112 11.7644 5.88979 11.8098 5.8329 11.9102C5.72158 12.0508 5.64938 12.2183 5.62363 12.3958C5.59787 12.5733 5.61947 12.7544 5.68623 12.9209Z" fill="#8C7332"/>
<path d="M12.4444 9.64222V14.2222H1.77777V1.77777H12.4444V3.99689L13.0356 3.40577C13.1265 3.31602 13.2263 3.23562 13.3333 3.16577V1.33333C13.3333 1.21546 13.2865 1.10241 13.2032 1.01906C13.1198 0.935711 13.0068 0.888885 12.8889 0.888885H1.33333C1.21546 0.888885 1.10241 0.935711 1.01906 1.01906C0.935711 1.10241 0.888885 1.21546 0.888885 1.33333V14.6667C0.888885 14.7845 0.935711 14.8976 1.01906 14.9809C1.10241 15.0643 1.21546 15.1111 1.33333 15.1111H12.8889C13.0068 15.1111 13.1198 15.0643 13.2032 14.9809C13.2865 14.8976 13.3333 14.7845 13.3333 14.6667V9.52311C13.0608 9.66794 12.7454 9.7102 12.4444 9.64222Z" fill="#8C7332"/>
<path d="M15.168 5.27155L14.9356 5.03911C15.0542 4.88204 15.1142 4.68847 15.1053 4.49185C15.0964 4.29522 15.019 4.10788 14.8867 3.96222C14.7146 3.81059 14.4897 3.73308 14.2607 3.74656C14.0318 3.76005 13.8175 3.86344 13.6644 4.03422L8.09778 9.6L7.72578 10.9964C7.71989 11.0147 7.71917 11.0343 7.72371 11.0529C7.72824 11.0716 7.73785 11.0886 7.75147 11.1021C7.76509 11.1157 7.78219 11.1251 7.80088 11.1296C7.81956 11.134 7.8391 11.1331 7.85733 11.1271L9.24889 10.7507L14.4453 5.55422L14.6649 5.77422C14.6803 5.7895 14.6925 5.80768 14.7008 5.8277C14.7092 5.84772 14.7134 5.8692 14.7134 5.89088C14.7134 5.91257 14.7092 5.93404 14.7008 5.95407C14.6925 5.97409 14.6803 5.99227 14.6649 6.00755L12.4796 8.19288C12.4129 8.2596 12.3755 8.35006 12.3755 8.44437C12.3756 8.53868 12.4131 8.62912 12.4798 8.69577C12.5465 8.76243 12.637 8.79985 12.7313 8.79981C12.8256 8.79977 12.916 8.76227 12.9827 8.69555L15.168 6.51022C15.2494 6.4289 15.314 6.33232 15.3581 6.22601C15.4022 6.1197 15.4249 6.00575 15.4249 5.89066C15.4249 5.77558 15.4022 5.66162 15.3581 5.55531C15.314 5.449 15.2494 5.35242 15.168 5.27111" fill="#8C7332"/>
</svg>
