<svg width="16" height="16" viewBox="0 0 16 16" fill="none" xmlns="http://www.w3.org/2000/svg">
<path d="M4.66666 1.33334H11.3333C11.8638 1.33334 12.3725 1.54406 12.7475 1.91913C13.1226 2.2942 13.3333 2.80291 13.3333 3.33334V12.6667C13.3333 13.1971 13.1226 13.7058 12.7475 14.0809C12.3725 14.456 11.8638 14.6667 11.3333 14.6667H4.66666C4.13622 14.6667 3.62752 14.456 3.25244 14.0809C2.87737 13.7058 2.66666 13.1971 2.66666 12.6667V3.33334C2.66666 2.80291 2.87737 2.2942 3.25244 1.91913C3.62752 1.54406 4.13622 1.33334 4.66666 1.33334ZM4.66666 2.66668C4.48985 2.66668 4.32028 2.73691 4.19525 2.86194C4.07023 2.98696 3.99999 3.15653 3.99999 3.33334V12.6667C3.99999 12.8435 4.07023 13.0131 4.19525 13.1381C4.32028 13.2631 4.48985 13.3333 4.66666 13.3333H11.3333C11.5101 13.3333 11.6797 13.2631 11.8047 13.1381C11.9298 13.0131 12 12.8435 12 12.6667V3.33334C12 3.15653 11.9298 2.98696 11.8047 2.86194C11.6797 2.73691 11.5101 2.66668 11.3333 2.66668H4.66666ZM5.99999 11.3333H7.33332C7.51013 11.3333 7.6797 11.4036 7.80473 11.5286C7.92975 11.6536 7.99999 11.8232 7.99999 12C7.99999 12.1768 7.92975 12.3464 7.80473 12.4714C7.6797 12.5964 7.51013 12.6667 7.33332 12.6667H5.99999C5.82318 12.6667 5.65361 12.5964 5.52859 12.4714C5.40356 12.3464 5.33332 12.1768 5.33332 12C5.33332 11.8232 5.40356 11.6536 5.52859 11.5286C5.65361 11.4036 5.82318 11.3333 5.99999 11.3333ZM9.99999 3.33334C10.1768 3.33334 10.3464 3.40358 10.4714 3.52861C10.5964 3.65363 10.6667 3.8232 10.6667 4.00001C10.6667 4.17682 10.5964 4.34639 10.4714 4.47141C10.3464 4.59644 10.1768 4.66668 9.99999 4.66668C9.82318 4.66668 9.65361 4.59644 9.52859 4.47141C9.40356 4.34639 9.33332 4.17682 9.33332 4.00001C9.33332 3.8232 9.40356 3.65363 9.52859 3.52861C9.65361 3.40358 9.82318 3.33334 9.99999 3.33334ZM9.99999 5.33334C10.1768 5.33334 10.3464 5.40358 10.4714 5.52861C10.5964 5.65363 10.6667 5.8232 10.6667 6.00001C10.6667 6.17682 10.5964 6.34639 10.4714 6.47141C10.3464 6.59644 10.1768 6.66668 9.99999 6.66668C9.82318 6.66668 9.65361 6.59644 9.52859 6.47141C9.40356 6.34639 9.33332 6.17682 9.33332 6.00001C9.33332 5.8232 9.40356 5.65363 9.52859 5.52861C9.65361 5.40358 9.82318 5.33334 9.99999 5.33334ZM5.99999 9.33334H9.99999C10.1768 9.33334 10.3464 9.40358 10.4714 9.52861C10.5964 9.65363 10.6667 9.8232 10.6667 10C10.6667 10.1768 10.5964 10.3464 10.4714 10.4714C10.3464 10.5964 10.1768 10.6667 9.99999 10.6667H5.99999C5.82318 10.6667 5.65361 10.5964 5.52859 10.4714C5.40356 10.3464 5.33332 10.1768 5.33332 10C5.33332 9.8232 5.40356 9.65363 5.52859 9.52861C5.65361 9.40358 5.82318 9.33334 5.99999 9.33334ZM5.99999 7.33334H9.99999C10.1768 7.33334 10.3464 7.40358 10.4714 7.52861C10.5964 7.65363 10.6667 7.8232 10.6667 8.00001C10.6667 8.17682 10.5964 8.34639 10.4714 8.47141C10.3464 8.59644 10.1768 8.66668 9.99999 8.66668H5.99999C5.82318 8.66668 5.65361 8.59644 5.52859 8.47141C5.40356 8.34639 5.33332 8.17682 5.33332 8.00001C5.33332 7.8232 5.40356 7.65363 5.52859 7.52861C5.65361 7.40358 5.82318 7.33334 5.99999 7.33334ZM6.33332 3.33334H7.66666C7.93187 3.33334 8.18623 3.4387 8.37376 3.62624C8.5613 3.81377 8.66666 4.06813 8.66666 4.33334V5.66668C8.66666 5.93189 8.5613 6.18625 8.37376 6.37378C8.18623 6.56132 7.93187 6.66668 7.66666 6.66668H6.33332C6.06811 6.66668 5.81375 6.56132 5.62622 6.37378C5.43868 6.18625 5.33332 5.93189 5.33332 5.66668V4.33334C5.33332 4.06813 5.43868 3.81377 5.62622 3.62624C5.81375 3.4387 6.06811 3.33334 6.33332 3.33334Z" fill="#C9A84C"/>
</svg>
