<svg width="17" height="17" viewBox="0 0 17 17" fill="none" xmlns="http://www.w3.org/2000/svg">
<path fill-rule="evenodd" clip-rule="evenodd" d="M6.00613 10.7979C6.19508 10.8222 6.37148 10.8333 6.53645 10.8333C8.25355 10.8333 8.72922 9.61558 8.91887 9.13004L8.9191 9.12941C9.28824 8.18199 9.5948 6.47128 9.71023 5.81425C9.83273 5.08398 9.66992 4.41902 9.2523 3.9416C8.87062 3.50546 8.29949 3.24961 7.6434 3.24961H5.76973C5.76973 3.24961 5.93496 2.59566 6.05937 2.11105C6.47023 0.510582 5.55727 -0.0630902 4.25715 0.00542547L2.36004 3.55191L0 4.87468V9.74992L6.00613 10.7979ZM7.41441 12.566C7.23352 12.3592 7.10043 12.1171 7.01766 11.8499C7.95832 11.7814 8.63719 11.4061 9.10902 10.9238C9.59492 10.4273 9.81645 9.85941 9.91781 9.59953L9.9241 9.58336C10.3297 8.54238 10.6514 6.75531 10.7709 6.07382L10.7729 6.06711L10.7812 6.01785C10.7969 5.92412 10.809 5.83054 10.8177 5.73711L16.6668 6.75761V11.6329L14.3067 12.9557L12.4096 16.5021C11.1095 16.5707 10.1965 15.997 10.6073 14.3965C10.7045 14.0171 10.8011 13.6376 10.897 13.258H9.02336C8.36727 13.258 7.79609 13.0021 7.41441 12.566Z" fill="#8C7332"/>
</svg>
