<svg width="16" height="16" viewBox="0 0 16 16" fill="none" xmlns="http://www.w3.org/2000/svg">
<path d="M13.3333 2.66666H2.66666C1.93333 2.66666 1.33999 3.26666 1.33999 3.99999L1.33333 12C1.33333 12.7333 1.93333 13.3333 2.66666 13.3333H13.3333C14.0667 13.3333 14.6667 12.7333 14.6667 12V3.99999C14.6667 3.26666 14.0667 2.66666 13.3333 2.66666ZM13.0667 5.49999L8.35333 8.44666C8.13999 8.57999 7.86 8.57999 7.64666 8.44666L2.93333 5.49999C2.86648 5.46246 2.80794 5.41176 2.76125 5.35096C2.71457 5.29015 2.6807 5.22051 2.66171 5.14624C2.64272 5.07197 2.639 4.99461 2.65077 4.91886C2.66254 4.84311 2.68955 4.77053 2.73018 4.70552C2.77081 4.64052 2.82421 4.58443 2.88715 4.54065C2.95008 4.49688 3.02124 4.46633 3.09633 4.45086C3.17141 4.43538 3.24885 4.4353 3.32396 4.45062C3.39908 4.46594 3.4703 4.49635 3.53333 4.53999L8 7.33332L12.4667 4.53999C12.5297 4.49635 12.6009 4.46594 12.676 4.45062C12.7511 4.4353 12.8286 4.43538 12.9037 4.45086C12.9787 4.46633 13.0499 4.49688 13.1128 4.54065C13.1758 4.58443 13.2292 4.64052 13.2698 4.70552C13.3104 4.77053 13.3375 4.84311 13.3492 4.91886C13.361 4.99461 13.3573 5.07197 13.3383 5.14624C13.3193 5.22051 13.2854 5.29015 13.2387 5.35096C13.192 5.41176 13.1335 5.46246 13.0667 5.49999Z" fill="#8C7332"/>
</svg>
