<svg width="40" height="40" viewBox="0 0 40 40" fill="none" xmlns="http://www.w3.org/2000/svg">
<path d="M20 6.66666L18.8217 5.48833L20 4.31L21.1783 5.48833L20 6.66666ZM21.6667 31.6667C21.6667 32.1087 21.4911 32.5326 21.1785 32.8452C20.8659 33.1577 20.442 33.3333 20 33.3333C19.558 33.3333 19.134 33.1577 18.8215 32.8452C18.5089 32.5326 18.3333 32.1087 18.3333 31.6667H21.6667ZM8.82166 15.4883L18.8217 5.48833L21.1783 7.845L11.1783 17.845L8.82166 15.4883ZM21.1783 5.48833L31.1783 15.4883L28.8217 17.845L18.8217 7.845L21.1783 5.48833ZM21.6667 6.66666V31.6667H18.3333V6.66666H21.6667Z" fill="#C9A84C"/>
</svg>
